<?xml version="1.0" standalone="no"?><!DOCTYPE svg PUBLIC "-//W3C//DTD SVG 1.1//EN" "http://www.w3.org/Graphics/SVG/1.1/DTD/svg11.dtd"><svg t="1504417480203" class="icon" style="" viewBox="0 0 1025 1024" version="1.1" xmlns="http://www.w3.org/2000/svg" p-id="1016" xmlns:xlink="http://www.w3.org/1999/xlink" width="200.1953125" height="200"><defs><style type="text/css"></style></defs><path d="M509.278384 954.05462c-88.555115 0-178.188847-44.623452-178.188847-129.850612 0-84.952901 93.268694-178.191917 178.188847-178.191917 84.893546 0 178.134609 93.239017 178.134609 178.191917C687.41504 909.428098 597.805868 954.05462 509.278384 954.05462zM509.278384 689.968314c-60.209168 0-134.202946 74.021409-134.202946 134.235694 0 55.772919 69.139999 85.863688 134.202946 85.863688 65.03941 0 134.149732-30.090769 134.149732-85.863688C643.428116 763.989722 569.462992 689.968314 509.278384 689.968314z" p-id="1017" fill="#1296db"></path><path d="M314.974745 743.854164l-5.632553-4.879363C241.754624 680.206518 202.982724 595.452149 202.982724 506.45392c0-170.204621 138.476482-308.709758 308.651426-308.709758 170.204621 0 308.68315 138.505136 308.68315 308.709758 0 88.774113-38.633747 173.362699-105.941939 232.104374l-5.605946 4.882433-24.155302-27.652111 5.605946-4.90904c59.350572-51.749082 93.37717-126.272958 93.37717-204.425656 0-149.96161-122.001469-271.988663-271.961033-271.988663-149.956493 0-271.932379 122.027053-271.932379 271.988663 0 78.402397 34.168844 153.033726 93.742508 204.815555l5.630506 4.88141L314.974745 743.854164z" p-id="1018" fill="#1296db"></path><path d="M509.278384 954.05462c-88.555115 0-178.188847-44.623452-178.188847-129.850612 0-84.952901 93.268694-178.191917 178.188847-178.191917 84.893546 0 178.134609 93.239017 178.134609 178.191917C687.41504 909.428098 597.805868 954.05462 509.278384 954.05462zM509.278384 689.968314c-60.209168 0-134.202946 74.021409-134.202946 134.235694 0 55.772919 69.139999 85.863688 134.202946 85.863688 65.03941 0 134.149732-30.090769 134.149732-85.863688C643.428116 763.989722 569.462992 689.968314 509.278384 689.968314z" p-id="1019" fill="#1296db"></path><path d="M482.016172 643.485424l-4.851732-1.32934c-53.943158-14.450814-91.634394-63.567824-91.634394-119.397027 0-68.254796 55.496613-123.778016 123.749362-123.778016 68.228188 0 123.721731 55.52322 123.721731 123.778016 0 54.554101-36.580895 103.363081-88.941944 118.730822l-4.854802 1.415302-4.990909-0.833012c-8.877616-1.495124-15.921377-2.191006-22.157711-2.191006-7.489945 0-15.672702 0.889297-25.074276 2.662773L482.016172 643.485424zM509.278384 442.942381c-43.984878 0-79.763461 35.803144-79.763461 79.817699 0 34.084929 22.382849 64.926841 54.665647 75.604541 19.636161-3.246086 32.474166-3.330001 51.917936-0.530099 31.254325-11.231335 52.943339-41.823549 52.943339-75.074442C589.042868 478.747572 553.265308 442.942381 509.278384 442.942381z" p-id="1020" fill="#1296db"></path><path d="M739.194822 918.358928l-18.663972-39.822887 6.739825-3.164218c109.469448-51.36123 180.215093-162.300217 180.215093-282.693993l0-166.541006c0-172.145928-140.082128-312.230103-312.228057-312.230103L428.738196 113.906721c-172.143881 0-312.199403 140.084175-312.199403 312.230103l0 166.541006c0 120.227993 70.721084 231.110695 180.184392 282.471925l6.743918 3.187755-18.666019 39.826981-6.767455-3.189802C153.228163 856.403914 72.553916 729.877163 72.553916 592.67783l0-166.541006c0-196.412776 159.77355-356.19042 356.185303-356.19042l166.518492 0c196.4138 0 356.19042 159.777644 356.19042 356.19042l0 166.541006c0 137.365117-80.653781 263.946106-205.483807 322.520974L739.194822 918.358928z" p-id="1021" fill="#1296db"></path></svg>